{
	"patcher" : 	{
		"fileversion" : 1,
		"rect" : [ 32.0, 44.0, 877.0, 452.0 ],
		"bglocked" : 0,
		"defrect" : [ 32.0, 44.0, 877.0, 452.0 ],
		"openrect" : [ 0.0, 0.0, 0.0, 0.0 ],
		"openinpresentation" : 1,
		"default_fontsize" : 12.0,
		"default_fontface" : 0,
		"default_fontname" : "Arial",
		"gridonopen" : 0,
		"gridsize" : [ 15.0, 15.0 ],
		"gridsnaponopen" : 0,
		"toolbarvisible" : 1,
		"boxanimatetime" : 200,
		"imprint" : 0,
		"boxes" : [ 			{
				"box" : 				{
					"maxclass" : "comment",
					"text" : "midi test on/off",
					"patching_rect" : [ 465.0, 165.0, 150.0, 20.0 ],
					"presentation" : 1,
					"id" : "obj-12",
					"numinlets" : 1,
					"fontname" : "Arial",
					"numoutlets" : 0,
					"fontsize" : 12.0,
					"presentation_rect" : [ 746.0, 75.0, 88.0, 20.0 ]
				}

			}
, 			{
				"box" : 				{
					"maxclass" : "toggle",
					"patching_rect" : [ 435.0, 165.0, 20.0, 20.0 ],
					"presentation" : 1,
					"id" : "obj-10",
					"numinlets" : 1,
					"numoutlets" : 1,
					"outlettype" : [ "int" ],
					"presentation_rect" : [ 836.0, 75.0, 20.0, 20.0 ]
				}

			}
, 			{
				"box" : 				{
					"maxclass" : "newobj",
					"text" : "gate",
					"patching_rect" : [ 435.0, 195.0, 34.0, 20.0 ],
					"id" : "obj-8",
					"numinlets" : 2,
					"fontname" : "Arial",
					"numoutlets" : 1,
					"outlettype" : [ "" ],
					"fontsize" : 12.0
				}

			}
, 			{
				"box" : 				{
					"maxclass" : "newobj",
					"text" : "noteout",
					"patching_rect" : [ 435.0, 315.0, 51.0, 20.0 ],
					"id" : "obj-6",
					"numinlets" : 3,
					"fontname" : "Arial",
					"numoutlets" : 0,
					"fontsize" : 12.0
				}

			}
, 			{
				"box" : 				{
					"maxclass" : "newobj",
					"text" : "makenote 60 500",
					"patching_rect" : [ 435.0, 285.0, 103.0, 20.0 ],
					"id" : "obj-4",
					"numinlets" : 3,
					"fontname" : "Arial",
					"numoutlets" : 2,
					"outlettype" : [ "int", "int" ],
					"fontsize" : 12.0
				}

			}
, 			{
				"box" : 				{
					"maxclass" : "newobj",
					"text" : "unpack i i",
					"patching_rect" : [ 435.0, 225.0, 61.0, 20.0 ],
					"id" : "obj-3",
					"numinlets" : 1,
					"fontname" : "Arial",
					"numoutlets" : 2,
					"outlettype" : [ "int", "int" ],
					"fontsize" : 12.0
				}

			}
, 			{
				"box" : 				{
					"maxclass" : "newobj",
					"text" : "+ 24",
					"patching_rect" : [ 435.0, 255.0, 34.0, 20.0 ],
					"id" : "obj-1",
					"numinlets" : 2,
					"fontname" : "Arial",
					"numoutlets" : 1,
					"outlettype" : [ "int" ],
					"fontsize" : 12.0
				}

			}
, 			{
				"box" : 				{
					"maxclass" : "newobj",
					"text" : "unpack i i",
					"patching_rect" : [ 15.0, 60.0, 61.0, 20.0 ],
					"id" : "obj-104",
					"numinlets" : 1,
					"fontname" : "Arial",
					"numoutlets" : 2,
					"outlettype" : [ "int", "int" ],
					"fontsize" : 12.0
				}

			}
, 			{
				"box" : 				{
					"maxclass" : "inlet",
					"patching_rect" : [ 15.0, 15.0, 25.0, 25.0 ],
					"id" : "obj-103",
					"numinlets" : 0,
					"numoutlets" : 1,
					"outlettype" : [ "" ],
					"comment" : ""
				}

			}
, 			{
				"box" : 				{
					"maxclass" : "newobj",
					"text" : "p preparaTramas",
					"patching_rect" : [ 15.0, 165.0, 103.0, 20.0 ],
					"id" : "obj-97",
					"numinlets" : 2,
					"fontname" : "Arial",
					"numoutlets" : 1,
					"outlettype" : [ "" ],
					"fontsize" : 12.0,
					"patcher" : 					{
						"fileversion" : 1,
						"rect" : [ 14.0, 71.0, 850.0, 768.0 ],
						"bglocked" : 0,
						"defrect" : [ 14.0, 71.0, 850.0, 768.0 ],
						"openrect" : [ 0.0, 0.0, 0.0, 0.0 ],
						"openinpresentation" : 0,
						"default_fontsize" : 12.0,
						"default_fontface" : 0,
						"default_fontname" : "Arial",
						"gridonopen" : 0,
						"gridsize" : [ 15.0, 15.0 ],
						"gridsnaponopen" : 0,
						"toolbarvisible" : 1,
						"boxanimatetime" : 200,
						"imprint" : 0,
						"boxes" : [ 							{
								"box" : 								{
									"maxclass" : "newobj",
									"text" : "if $i1 < 7 then $i1",
									"patching_rect" : [ 330.0, 300.0, 102.0, 20.0 ],
									"id" : "obj-8",
									"numinlets" : 1,
									"fontname" : "Arial",
									"numoutlets" : 1,
									"outlettype" : [ "" ],
									"fontsize" : 12.0
								}

							}
, 							{
								"box" : 								{
									"maxclass" : "message",
									"text" : "$2 $1 $3",
									"patching_rect" : [ 330.0, 360.0, 57.0, 18.0 ],
									"id" : "obj-7",
									"numinlets" : 2,
									"fontname" : "Arial",
									"numoutlets" : 1,
									"outlettype" : [ "" ],
									"fontsize" : 12.0
								}

							}
, 							{
								"box" : 								{
									"maxclass" : "message",
									"text" : "0",
									"patching_rect" : [ 345.0, 660.0, 32.5, 18.0 ],
									"id" : "obj-67",
									"numinlets" : 2,
									"fontname" : "Arial",
									"numoutlets" : 1,
									"outlettype" : [ "" ],
									"fontsize" : 12.0
								}

							}
, 							{
								"box" : 								{
									"maxclass" : "message",
									"text" : "%0084 132",
									"patching_rect" : [ 330.0, 750.0, 71.0, 18.0 ],
									"id" : "obj-60",
									"numinlets" : 2,
									"fontname" : "Arial",
									"numoutlets" : 1,
									"outlettype" : [ "" ],
									"fontsize" : 12.0
								}

							}
, 							{
								"box" : 								{
									"maxclass" : "newobj",
									"text" : "route -999 -9999",
									"patching_rect" : [ 330.0, 720.0, 99.0, 20.0 ],
									"id" : "obj-62",
									"numinlets" : 1,
									"fontname" : "Arial",
									"numoutlets" : 3,
									"outlettype" : [ "", "", "" ],
									"fontsize" : 12.0
								}

							}
, 							{
								"box" : 								{
									"maxclass" : "newobj",
									"text" : "rp.trama",
									"patching_rect" : [ 330.0, 780.0, 83.0, 20.0 ],
									"id" : "obj-63",
									"numinlets" : 3,
									"fontname" : "Arial",
									"numoutlets" : 1,
									"outlettype" : [ "" ],
									"fontsize" : 12.0
								}

							}
, 							{
								"box" : 								{
									"maxclass" : "message",
									"text" : "%0083 131",
									"patching_rect" : [ 225.0, 750.0, 71.0, 18.0 ],
									"id" : "obj-55",
									"numinlets" : 2,
									"fontname" : "Arial",
									"numoutlets" : 1,
									"outlettype" : [ "" ],
									"fontsize" : 12.0
								}

							}
, 							{
								"box" : 								{
									"maxclass" : "newobj",
									"text" : "route -999 -9999",
									"patching_rect" : [ 225.0, 720.0, 99.0, 20.0 ],
									"id" : "obj-56",
									"numinlets" : 1,
									"fontname" : "Arial",
									"numoutlets" : 3,
									"outlettype" : [ "", "", "" ],
									"fontsize" : 12.0
								}

							}
, 							{
								"box" : 								{
									"maxclass" : "newobj",
									"text" : "rp.trama",
									"patching_rect" : [ 225.0, 780.0, 83.0, 20.0 ],
									"id" : "obj-58",
									"numinlets" : 3,
									"fontname" : "Arial",
									"numoutlets" : 1,
									"outlettype" : [ "" ],
									"fontsize" : 12.0
								}

							}
, 							{
								"box" : 								{
									"maxclass" : "message",
									"text" : "%0082 130",
									"patching_rect" : [ 120.0, 750.0, 71.0, 18.0 ],
									"id" : "obj-50",
									"numinlets" : 2,
									"fontname" : "Arial",
									"numoutlets" : 1,
									"outlettype" : [ "" ],
									"fontsize" : 12.0
								}

							}
, 							{
								"box" : 								{
									"maxclass" : "newobj",
									"text" : "route -999 -9999",
									"patching_rect" : [ 120.0, 720.0, 99.0, 20.0 ],
									"id" : "obj-51",
									"numinlets" : 1,
									"fontname" : "Arial",
									"numoutlets" : 3,
									"outlettype" : [ "", "", "" ],
									"fontsize" : 12.0
								}

							}
, 							{
								"box" : 								{
									"maxclass" : "newobj",
									"text" : "rp.trama",
									"patching_rect" : [ 120.0, 780.0, 83.0, 20.0 ],
									"id" : "obj-54",
									"numinlets" : 3,
									"fontname" : "Arial",
									"numoutlets" : 1,
									"outlettype" : [ "" ],
									"fontsize" : 12.0
								}

							}
, 							{
								"box" : 								{
									"maxclass" : "message",
									"text" : "-999",
									"patching_rect" : [ 300.0, 660.0, 35.0, 18.0 ],
									"id" : "obj-49",
									"numinlets" : 2,
									"fontname" : "Arial",
									"numoutlets" : 1,
									"outlettype" : [ "" ],
									"fontsize" : 12.0
								}

							}
, 							{
								"box" : 								{
									"maxclass" : "message",
									"text" : "%0081 129",
									"patching_rect" : [ 15.0, 750.0, 71.0, 18.0 ],
									"id" : "obj-47",
									"numinlets" : 2,
									"fontname" : "Arial",
									"numoutlets" : 1,
									"outlettype" : [ "" ],
									"fontsize" : 12.0
								}

							}
, 							{
								"box" : 								{
									"maxclass" : "newobj",
									"text" : "route -999 -9999",
									"patching_rect" : [ 15.0, 720.0, 99.0, 20.0 ],
									"id" : "obj-41",
									"numinlets" : 1,
									"fontname" : "Arial",
									"numoutlets" : 3,
									"outlettype" : [ "", "", "" ],
									"fontsize" : 12.0
								}

							}
, 							{
								"box" : 								{
									"maxclass" : "newobj",
									"text" : "gate 4",
									"patching_rect" : [ 15.0, 690.0, 333.5, 20.0 ],
									"id" : "obj-40",
									"numinlets" : 2,
									"fontname" : "Arial",
									"numoutlets" : 4,
									"outlettype" : [ "", "", "", "" ],
									"fontsize" : 12.0
								}

							}
, 							{
								"box" : 								{
									"maxclass" : "newobj",
									"text" : "t -9999 i -999",
									"patching_rect" : [ 390.0, 660.0, 81.0, 20.0 ],
									"id" : "obj-37",
									"numinlets" : 1,
									"fontname" : "Arial",
									"numoutlets" : 3,
									"outlettype" : [ "int", "int", "int" ],
									"fontsize" : 12.0
								}

							}
, 							{
								"box" : 								{
									"maxclass" : "newobj",
									"text" : "+ 1",
									"patching_rect" : [ 390.0, 630.0, 32.5, 20.0 ],
									"id" : "obj-30",
									"numinlets" : 2,
									"fontname" : "Arial",
									"numoutlets" : 1,
									"outlettype" : [ "int" ],
									"fontsize" : 12.0
								}

							}
, 							{
								"box" : 								{
									"maxclass" : "newobj",
									"text" : "sel 4",
									"patching_rect" : [ 345.0, 600.0, 64.0, 20.0 ],
									"id" : "obj-28",
									"numinlets" : 2,
									"fontname" : "Arial",
									"numoutlets" : 2,
									"outlettype" : [ "bang", "" ],
									"fontsize" : 12.0
								}

							}
, 							{
								"box" : 								{
									"maxclass" : "newobj",
									"text" : "rp.trama",
									"patching_rect" : [ 15.0, 780.0, 83.0, 20.0 ],
									"id" : "obj-26",
									"numinlets" : 3,
									"fontname" : "Arial",
									"numoutlets" : 1,
									"outlettype" : [ "" ],
									"fontsize" : 12.0
								}

							}
, 							{
								"box" : 								{
									"maxclass" : "newobj",
									"text" : "p distributeToRobots",
									"patching_rect" : [ 330.0, 390.0, 121.0, 20.0 ],
									"id" : "obj-219",
									"numinlets" : 2,
									"fontname" : "Arial",
									"numoutlets" : 0,
									"fontsize" : 12.0,
									"patcher" : 									{
										"fileversion" : 1,
										"rect" : [ 25.0, 69.0, 286.0, 371.0 ],
										"bglocked" : 0,
										"defrect" : [ 25.0, 69.0, 286.0, 371.0 ],
										"openrect" : [ 0.0, 0.0, 0.0, 0.0 ],
										"openinpresentation" : 0,
										"default_fontsize" : 12.0,
										"default_fontface" : 0,
										"default_fontname" : "Arial",
										"gridonopen" : 0,
										"gridsize" : [ 15.0, 15.0 ],
										"gridsnaponopen" : 0,
										"toolbarvisible" : 1,
										"boxanimatetime" : 200,
										"imprint" : 0,
										"boxes" : [ 											{
												"box" : 												{
													"maxclass" : "newobj",
													"text" : "s bToZl",
													"patching_rect" : [ 90.0, 45.0, 51.0, 20.0 ],
													"id" : "obj-2",
													"numinlets" : 1,
													"fontname" : "Arial",
													"numoutlets" : 0,
													"fontsize" : 12.0
												}

											}
, 											{
												"box" : 												{
													"maxclass" : "inlet",
													"patching_rect" : [ 90.0, 15.0, 25.0, 25.0 ],
													"id" : "obj-1",
													"numinlets" : 0,
													"numoutlets" : 1,
													"outlettype" : [ "bang" ],
													"comment" : ""
												}

											}
, 											{
												"box" : 												{
													"maxclass" : "newobj",
													"text" : "s listGate",
													"patching_rect" : [ 195.0, 525.0, 61.0, 20.0 ],
													"id" : "obj-202",
													"numinlets" : 1,
													"fontname" : "Arial",
													"numoutlets" : 0,
													"fontsize" : 12.0
												}

											}
, 											{
												"box" : 												{
													"maxclass" : "newobj",
													"text" : "r bToZl",
													"patching_rect" : [ 210.0, 405.0, 49.0, 20.0 ],
													"id" : "obj-203",
													"numinlets" : 0,
													"fontname" : "Arial",
													"numoutlets" : 1,
													"outlettype" : [ "" ],
													"fontsize" : 12.0
												}

											}
, 											{
												"box" : 												{
													"maxclass" : "newobj",
													"text" : "zl iter 2",
													"patching_rect" : [ 195.0, 465.0, 49.0, 20.0 ],
													"id" : "obj-204",
													"numinlets" : 2,
													"fontname" : "Arial",
													"numoutlets" : 2,
													"outlettype" : [ "", "" ],
													"fontsize" : 12.0
												}

											}
, 											{
												"box" : 												{
													"maxclass" : "message",
													"text" : "12 $1 $2",
													"patching_rect" : [ 195.0, 495.0, 57.0, 18.0 ],
													"id" : "obj-205",
													"numinlets" : 2,
													"fontname" : "Arial",
													"numoutlets" : 1,
													"outlettype" : [ "" ],
													"fontsize" : 12.0
												}

											}
, 											{
												"box" : 												{
													"maxclass" : "newobj",
													"text" : "zl group 16",
													"patching_rect" : [ 195.0, 435.0, 70.0, 20.0 ],
													"id" : "obj-206",
													"numinlets" : 2,
													"fontname" : "Arial",
													"numoutlets" : 2,
													"outlettype" : [ "", "" ],
													"fontsize" : 12.0
												}

											}
, 											{
												"box" : 												{
													"maxclass" : "newobj",
													"text" : "s listGate",
													"patching_rect" : [ 180.0, 375.0, 61.0, 20.0 ],
													"id" : "obj-207",
													"numinlets" : 1,
													"fontname" : "Arial",
													"numoutlets" : 0,
													"fontsize" : 12.0
												}

											}
, 											{
												"box" : 												{
													"maxclass" : "newobj",
													"text" : "r bToZl",
													"patching_rect" : [ 195.0, 255.0, 49.0, 20.0 ],
													"id" : "obj-208",
													"numinlets" : 0,
													"fontname" : "Arial",
													"numoutlets" : 1,
													"outlettype" : [ "" ],
													"fontsize" : 12.0
												}

											}
, 											{
												"box" : 												{
													"maxclass" : "newobj",
													"text" : "zl iter 2",
													"patching_rect" : [ 180.0, 315.0, 49.0, 20.0 ],
													"id" : "obj-209",
													"numinlets" : 2,
													"fontname" : "Arial",
													"numoutlets" : 2,
													"outlettype" : [ "", "" ],
													"fontsize" : 12.0
												}

											}
, 											{
												"box" : 												{
													"maxclass" : "message",
													"text" : "11 $1 $2",
													"patching_rect" : [ 180.0, 345.0, 57.0, 18.0 ],
													"id" : "obj-210",
													"numinlets" : 2,
													"fontname" : "Arial",
													"numoutlets" : 1,
													"outlettype" : [ "" ],
													"fontsize" : 12.0
												}

											}
, 											{
												"box" : 												{
													"maxclass" : "newobj",
													"text" : "zl group 16",
													"patching_rect" : [ 180.0, 285.0, 70.0, 20.0 ],
													"id" : "obj-211",
													"numinlets" : 2,
													"fontname" : "Arial",
													"numoutlets" : 2,
													"outlettype" : [ "", "" ],
													"fontsize" : 12.0
												}

											}
, 											{
												"box" : 												{
													"maxclass" : "newobj",
													"text" : "s listGate",
													"patching_rect" : [ 165.0, 225.0, 61.0, 20.0 ],
													"id" : "obj-212",
													"numinlets" : 1,
													"fontname" : "Arial",
													"numoutlets" : 0,
													"fontsize" : 12.0
												}

											}
, 											{
												"box" : 												{
													"maxclass" : "newobj",
													"text" : "r bToZl",
													"patching_rect" : [ 180.0, 105.0, 49.0, 20.0 ],
													"id" : "obj-213",
													"numinlets" : 0,
													"fontname" : "Arial",
													"numoutlets" : 1,
													"outlettype" : [ "" ],
													"fontsize" : 12.0
												}

											}
, 											{
												"box" : 												{
													"maxclass" : "newobj",
													"text" : "zl iter 2",
													"patching_rect" : [ 165.0, 165.0, 49.0, 20.0 ],
													"id" : "obj-214",
													"numinlets" : 2,
													"fontname" : "Arial",
													"numoutlets" : 2,
													"outlettype" : [ "", "" ],
													"fontsize" : 12.0
												}

											}
, 											{
												"box" : 												{
													"maxclass" : "message",
													"text" : "10 $1 $2",
													"patching_rect" : [ 165.0, 195.0, 57.0, 18.0 ],
													"id" : "obj-215",
													"numinlets" : 2,
													"fontname" : "Arial",
													"numoutlets" : 1,
													"outlettype" : [ "" ],
													"fontsize" : 12.0
												}

											}
, 											{
												"box" : 												{
													"maxclass" : "newobj",
													"text" : "zl group 16",
													"patching_rect" : [ 165.0, 135.0, 70.0, 20.0 ],
													"id" : "obj-216",
													"numinlets" : 2,
													"fontname" : "Arial",
													"numoutlets" : 2,
													"outlettype" : [ "", "" ],
													"fontsize" : 12.0
												}

											}
, 											{
												"box" : 												{
													"maxclass" : "newobj",
													"text" : "s listGate",
													"patching_rect" : [ 150.0, 825.0, 61.0, 20.0 ],
													"id" : "obj-167",
													"numinlets" : 1,
													"fontname" : "Arial",
													"numoutlets" : 0,
													"fontsize" : 12.0
												}

											}
, 											{
												"box" : 												{
													"maxclass" : "newobj",
													"text" : "r bToZl",
													"patching_rect" : [ 165.0, 705.0, 49.0, 20.0 ],
													"id" : "obj-168",
													"numinlets" : 0,
													"fontname" : "Arial",
													"numoutlets" : 1,
													"outlettype" : [ "" ],
													"fontsize" : 12.0
												}

											}
, 											{
												"box" : 												{
													"maxclass" : "newobj",
													"text" : "zl iter 2",
													"patching_rect" : [ 150.0, 765.0, 49.0, 20.0 ],
													"id" : "obj-169",
													"numinlets" : 2,
													"fontname" : "Arial",
													"numoutlets" : 2,
													"outlettype" : [ "", "" ],
													"fontsize" : 12.0
												}

											}
, 											{
												"box" : 												{
													"maxclass" : "message",
													"text" : "9 $1 $2",
													"patching_rect" : [ 150.0, 795.0, 51.0, 18.0 ],
													"id" : "obj-170",
													"numinlets" : 2,
													"fontname" : "Arial",
													"numoutlets" : 1,
													"outlettype" : [ "" ],
													"fontsize" : 12.0
												}

											}
, 											{
												"box" : 												{
													"maxclass" : "newobj",
													"text" : "zl group 16",
													"patching_rect" : [ 150.0, 735.0, 70.0, 20.0 ],
													"id" : "obj-171",
													"numinlets" : 2,
													"fontname" : "Arial",
													"numoutlets" : 2,
													"outlettype" : [ "", "" ],
													"fontsize" : 12.0
												}

											}
, 											{
												"box" : 												{
													"maxclass" : "newobj",
													"text" : "s listGate",
													"patching_rect" : [ 135.0, 675.0, 61.0, 20.0 ],
													"id" : "obj-172",
													"numinlets" : 1,
													"fontname" : "Arial",
													"numoutlets" : 0,
													"fontsize" : 12.0
												}

											}
, 											{
												"box" : 												{
													"maxclass" : "newobj",
													"text" : "r bToZl",
													"patching_rect" : [ 150.0, 555.0, 49.0, 20.0 ],
													"id" : "obj-173",
													"numinlets" : 0,
													"fontname" : "Arial",
													"numoutlets" : 1,
													"outlettype" : [ "" ],
													"fontsize" : 12.0
												}

											}
, 											{
												"box" : 												{
													"maxclass" : "newobj",
													"text" : "zl iter 2",
													"patching_rect" : [ 135.0, 615.0, 49.0, 20.0 ],
													"id" : "obj-174",
													"numinlets" : 2,
													"fontname" : "Arial",
													"numoutlets" : 2,
													"outlettype" : [ "", "" ],
													"fontsize" : 12.0
												}

											}
, 											{
												"box" : 												{
													"maxclass" : "message",
													"text" : "8 $1 $2",
													"patching_rect" : [ 135.0, 645.0, 51.0, 18.0 ],
													"id" : "obj-175",
													"numinlets" : 2,
													"fontname" : "Arial",
													"numoutlets" : 1,
													"outlettype" : [ "" ],
													"fontsize" : 12.0
												}

											}
, 											{
												"box" : 												{
													"maxclass" : "newobj",
													"text" : "zl group 16",
													"patching_rect" : [ 135.0, 585.0, 70.0, 20.0 ],
													"id" : "obj-176",
													"numinlets" : 2,
													"fontname" : "Arial",
													"numoutlets" : 2,
													"outlettype" : [ "", "" ],
													"fontsize" : 12.0
												}

											}
, 											{
												"box" : 												{
													"maxclass" : "newobj",
													"text" : "s listGate",
													"patching_rect" : [ 120.0, 525.0, 61.0, 20.0 ],
													"id" : "obj-177",
													"numinlets" : 1,
													"fontname" : "Arial",
													"numoutlets" : 0,
													"fontsize" : 12.0
												}

											}
, 											{
												"box" : 												{
													"maxclass" : "newobj",
													"text" : "r bToZl",
													"patching_rect" : [ 135.0, 405.0, 49.0, 20.0 ],
													"id" : "obj-178",
													"numinlets" : 0,
													"fontname" : "Arial",
													"numoutlets" : 1,
													"outlettype" : [ "" ],
													"fontsize" : 12.0
												}

											}
, 											{
												"box" : 												{
													"maxclass" : "newobj",
													"text" : "zl iter 2",
													"patching_rect" : [ 120.0, 465.0, 49.0, 20.0 ],
													"id" : "obj-179",
													"numinlets" : 2,
													"fontname" : "Arial",
													"numoutlets" : 2,
													"outlettype" : [ "", "" ],
													"fontsize" : 12.0
												}

											}
, 											{
												"box" : 												{
													"maxclass" : "message",
													"text" : "7 $1 $2",
													"patching_rect" : [ 120.0, 495.0, 51.0, 18.0 ],
													"id" : "obj-180",
													"numinlets" : 2,
													"fontname" : "Arial",
													"numoutlets" : 1,
													"outlettype" : [ "" ],
													"fontsize" : 12.0
												}

											}
, 											{
												"box" : 												{
													"maxclass" : "newobj",
													"text" : "zl group 16",
													"patching_rect" : [ 120.0, 435.0, 70.0, 20.0 ],
													"id" : "obj-181",
													"numinlets" : 2,
													"fontname" : "Arial",
													"numoutlets" : 2,
													"outlettype" : [ "", "" ],
													"fontsize" : 12.0
												}

											}
, 											{
												"box" : 												{
													"maxclass" : "newobj",
													"text" : "s listGate",
													"patching_rect" : [ 105.0, 375.0, 61.0, 20.0 ],
													"id" : "obj-182",
													"numinlets" : 1,
													"fontname" : "Arial",
													"numoutlets" : 0,
													"fontsize" : 12.0
												}

											}
, 											{
												"box" : 												{
													"maxclass" : "newobj",
													"text" : "r bToZl",
													"patching_rect" : [ 120.0, 255.0, 49.0, 20.0 ],
													"id" : "obj-183",
													"numinlets" : 0,
													"fontname" : "Arial",
													"numoutlets" : 1,
													"outlettype" : [ "" ],
													"fontsize" : 12.0
												}

											}
, 											{
												"box" : 												{
													"maxclass" : "newobj",
													"text" : "zl iter 2",
													"patching_rect" : [ 105.0, 315.0, 49.0, 20.0 ],
													"id" : "obj-184",
													"numinlets" : 2,
													"fontname" : "Arial",
													"numoutlets" : 2,
													"outlettype" : [ "", "" ],
													"fontsize" : 12.0
												}

											}
, 											{
												"box" : 												{
													"maxclass" : "message",
													"text" : "6 $1 $2",
													"patching_rect" : [ 105.0, 345.0, 51.0, 18.0 ],
													"id" : "obj-185",
													"numinlets" : 2,
													"fontname" : "Arial",
													"numoutlets" : 1,
													"outlettype" : [ "" ],
													"fontsize" : 12.0
												}

											}
, 											{
												"box" : 												{
													"maxclass" : "newobj",
													"text" : "zl group 16",
													"patching_rect" : [ 105.0, 285.0, 70.0, 20.0 ],
													"id" : "obj-186",
													"numinlets" : 2,
													"fontname" : "Arial",
													"numoutlets" : 2,
													"outlettype" : [ "", "" ],
													"fontsize" : 12.0
												}

											}
, 											{
												"box" : 												{
													"maxclass" : "newobj",
													"text" : "s listGate",
													"patching_rect" : [ 90.0, 225.0, 61.0, 20.0 ],
													"id" : "obj-187",
													"numinlets" : 1,
													"fontname" : "Arial",
													"numoutlets" : 0,
													"fontsize" : 12.0
												}

											}
, 											{
												"box" : 												{
													"maxclass" : "newobj",
													"text" : "r bToZl",
													"patching_rect" : [ 105.0, 105.0, 49.0, 20.0 ],
													"id" : "obj-188",
													"numinlets" : 0,
													"fontname" : "Arial",
													"numoutlets" : 1,
													"outlettype" : [ "" ],
													"fontsize" : 12.0
												}

											}
, 											{
												"box" : 												{
													"maxclass" : "newobj",
													"text" : "zl iter 2",
													"patching_rect" : [ 90.0, 165.0, 49.0, 20.0 ],
													"id" : "obj-189",
													"numinlets" : 2,
													"fontname" : "Arial",
													"numoutlets" : 2,
													"outlettype" : [ "", "" ],
													"fontsize" : 12.0
												}

											}
, 											{
												"box" : 												{
													"maxclass" : "message",
													"text" : "5 $1 $2",
													"patching_rect" : [ 90.0, 195.0, 51.0, 18.0 ],
													"id" : "obj-190",
													"numinlets" : 2,
													"fontname" : "Arial",
													"numoutlets" : 1,
													"outlettype" : [ "" ],
													"fontsize" : 12.0
												}

											}
, 											{
												"box" : 												{
													"maxclass" : "newobj",
													"text" : "zl group 16",
													"patching_rect" : [ 90.0, 135.0, 70.0, 20.0 ],
													"id" : "obj-191",
													"numinlets" : 2,
													"fontname" : "Arial",
													"numoutlets" : 2,
													"outlettype" : [ "", "" ],
													"fontsize" : 12.0
												}

											}
, 											{
												"box" : 												{
													"maxclass" : "newobj",
													"text" : "s listGate",
													"patching_rect" : [ 75.0, 825.0, 61.0, 20.0 ],
													"id" : "obj-162",
													"numinlets" : 1,
													"fontname" : "Arial",
													"numoutlets" : 0,
													"fontsize" : 12.0
												}

											}
, 											{
												"box" : 												{
													"maxclass" : "newobj",
													"text" : "r bToZl",
													"patching_rect" : [ 90.0, 705.0, 49.0, 20.0 ],
													"id" : "obj-163",
													"numinlets" : 0,
													"fontname" : "Arial",
													"numoutlets" : 1,
													"outlettype" : [ "" ],
													"fontsize" : 12.0
												}

											}
, 											{
												"box" : 												{
													"maxclass" : "newobj",
													"text" : "zl iter 2",
													"patching_rect" : [ 75.0, 765.0, 49.0, 20.0 ],
													"id" : "obj-164",
													"numinlets" : 2,
													"fontname" : "Arial",
													"numoutlets" : 2,
													"outlettype" : [ "", "" ],
													"fontsize" : 12.0
												}

											}
, 											{
												"box" : 												{
													"maxclass" : "message",
													"text" : "4 $1 $2",
													"patching_rect" : [ 75.0, 795.0, 51.0, 18.0 ],
													"id" : "obj-165",
													"numinlets" : 2,
													"fontname" : "Arial",
													"numoutlets" : 1,
													"outlettype" : [ "" ],
													"fontsize" : 12.0
												}

											}
, 											{
												"box" : 												{
													"maxclass" : "newobj",
													"text" : "zl group 16",
													"patching_rect" : [ 75.0, 735.0, 70.0, 20.0 ],
													"id" : "obj-166",
													"numinlets" : 2,
													"fontname" : "Arial",
													"numoutlets" : 2,
													"outlettype" : [ "", "" ],
													"fontsize" : 12.0
												}

											}
, 											{
												"box" : 												{
													"maxclass" : "newobj",
													"text" : "s listGate",
													"patching_rect" : [ 60.0, 675.0, 61.0, 20.0 ],
													"id" : "obj-157",
													"numinlets" : 1,
													"fontname" : "Arial",
													"numoutlets" : 0,
													"fontsize" : 12.0
												}

											}
, 											{
												"box" : 												{
													"maxclass" : "newobj",
													"text" : "r bToZl",
													"patching_rect" : [ 75.0, 555.0, 49.0, 20.0 ],
													"id" : "obj-158",
													"numinlets" : 0,
													"fontname" : "Arial",
													"numoutlets" : 1,
													"outlettype" : [ "" ],
													"fontsize" : 12.0
												}

											}
, 											{
												"box" : 												{
													"maxclass" : "newobj",
													"text" : "zl iter 2",
													"patching_rect" : [ 60.0, 615.0, 49.0, 20.0 ],
													"id" : "obj-159",
													"numinlets" : 2,
													"fontname" : "Arial",
													"numoutlets" : 2,
													"outlettype" : [ "", "" ],
													"fontsize" : 12.0
												}

											}
, 											{
												"box" : 												{
													"maxclass" : "message",
													"text" : "3 $1 $2",
													"patching_rect" : [ 60.0, 645.0, 51.0, 18.0 ],
													"id" : "obj-160",
													"numinlets" : 2,
													"fontname" : "Arial",
													"numoutlets" : 1,
													"outlettype" : [ "" ],
													"fontsize" : 12.0
												}

											}
, 											{
												"box" : 												{
													"maxclass" : "newobj",
													"text" : "zl group 16",
													"patching_rect" : [ 60.0, 585.0, 70.0, 20.0 ],
													"id" : "obj-161",
													"numinlets" : 2,
													"fontname" : "Arial",
													"numoutlets" : 2,
													"outlettype" : [ "", "" ],
													"fontsize" : 12.0
												}

											}
, 											{
												"box" : 												{
													"maxclass" : "newobj",
													"text" : "s listGate",
													"patching_rect" : [ 45.0, 525.0, 61.0, 20.0 ],
													"id" : "obj-152",
													"numinlets" : 1,
													"fontname" : "Arial",
													"numoutlets" : 0,
													"fontsize" : 12.0
												}

											}
, 											{
												"box" : 												{
													"maxclass" : "newobj",
													"text" : "r bToZl",
													"patching_rect" : [ 60.0, 405.0, 49.0, 20.0 ],
													"id" : "obj-153",
													"numinlets" : 0,
													"fontname" : "Arial",
													"numoutlets" : 1,
													"outlettype" : [ "" ],
													"fontsize" : 12.0
												}

											}
, 											{
												"box" : 												{
													"maxclass" : "newobj",
													"text" : "zl iter 2",
													"patching_rect" : [ 45.0, 465.0, 49.0, 20.0 ],
													"id" : "obj-154",
													"numinlets" : 2,
													"fontname" : "Arial",
													"numoutlets" : 2,
													"outlettype" : [ "", "" ],
													"fontsize" : 12.0
												}

											}
, 											{
												"box" : 												{
													"maxclass" : "message",
													"text" : "2 $1 $2",
													"patching_rect" : [ 45.0, 495.0, 51.0, 18.0 ],
													"id" : "obj-155",
													"numinlets" : 2,
													"fontname" : "Arial",
													"numoutlets" : 1,
													"outlettype" : [ "" ],
													"fontsize" : 12.0
												}

											}
, 											{
												"box" : 												{
													"maxclass" : "newobj",
													"text" : "zl group 16",
													"patching_rect" : [ 45.0, 435.0, 70.0, 20.0 ],
													"id" : "obj-156",
													"numinlets" : 2,
													"fontname" : "Arial",
													"numoutlets" : 2,
													"outlettype" : [ "", "" ],
													"fontsize" : 12.0
												}

											}
, 											{
												"box" : 												{
													"maxclass" : "newobj",
													"text" : "s listGate",
													"patching_rect" : [ 30.0, 375.0, 61.0, 20.0 ],
													"id" : "obj-147",
													"numinlets" : 1,
													"fontname" : "Arial",
													"numoutlets" : 0,
													"fontsize" : 12.0
												}

											}
, 											{
												"box" : 												{
													"maxclass" : "newobj",
													"text" : "r bToZl",
													"patching_rect" : [ 45.0, 255.0, 49.0, 20.0 ],
													"id" : "obj-148",
													"numinlets" : 0,
													"fontname" : "Arial",
													"numoutlets" : 1,
													"outlettype" : [ "" ],
													"fontsize" : 12.0
												}

											}
, 											{
												"box" : 												{
													"maxclass" : "newobj",
													"text" : "zl iter 2",
													"patching_rect" : [ 30.0, 315.0, 49.0, 20.0 ],
													"id" : "obj-149",
													"numinlets" : 2,
													"fontname" : "Arial",
													"numoutlets" : 2,
													"outlettype" : [ "", "" ],
													"fontsize" : 12.0
												}

											}
, 											{
												"box" : 												{
													"maxclass" : "message",
													"text" : "1 $1 $2",
													"patching_rect" : [ 30.0, 345.0, 51.0, 18.0 ],
													"id" : "obj-150",
													"numinlets" : 2,
													"fontname" : "Arial",
													"numoutlets" : 1,
													"outlettype" : [ "" ],
													"fontsize" : 12.0
												}

											}
, 											{
												"box" : 												{
													"maxclass" : "newobj",
													"text" : "zl group 16",
													"patching_rect" : [ 30.0, 285.0, 70.0, 20.0 ],
													"id" : "obj-151",
													"numinlets" : 2,
													"fontname" : "Arial",
													"numoutlets" : 2,
													"outlettype" : [ "", "" ],
													"fontsize" : 12.0
												}

											}
, 											{
												"box" : 												{
													"maxclass" : "newobj",
													"text" : "s listGate",
													"patching_rect" : [ 15.0, 225.0, 61.0, 20.0 ],
													"id" : "obj-146",
													"numinlets" : 1,
													"fontname" : "Arial",
													"numoutlets" : 0,
													"fontsize" : 12.0
												}

											}
, 											{
												"box" : 												{
													"maxclass" : "newobj",
													"text" : "r bToZl",
													"patching_rect" : [ 30.0, 105.0, 49.0, 20.0 ],
													"id" : "obj-145",
													"numinlets" : 0,
													"fontname" : "Arial",
													"numoutlets" : 1,
													"outlettype" : [ "" ],
													"fontsize" : 12.0
												}

											}
, 											{
												"box" : 												{
													"maxclass" : "newobj",
													"text" : "zl iter 2",
													"patching_rect" : [ 15.0, 165.0, 49.0, 20.0 ],
													"id" : "obj-102",
													"numinlets" : 2,
													"fontname" : "Arial",
													"numoutlets" : 2,
													"outlettype" : [ "", "" ],
													"fontsize" : 12.0
												}

											}
, 											{
												"box" : 												{
													"maxclass" : "message",
													"text" : "0 $1 $2",
													"patching_rect" : [ 15.0, 195.0, 51.0, 18.0 ],
													"id" : "obj-101",
													"numinlets" : 2,
													"fontname" : "Arial",
													"numoutlets" : 1,
													"outlettype" : [ "" ],
													"fontsize" : 12.0
												}

											}
, 											{
												"box" : 												{
													"maxclass" : "newobj",
													"text" : "zl group 16",
													"patching_rect" : [ 15.0, 135.0, 70.0, 20.0 ],
													"id" : "obj-98",
													"numinlets" : 2,
													"fontname" : "Arial",
													"numoutlets" : 2,
													"outlettype" : [ "", "" ],
													"fontsize" : 12.0
												}

											}
, 											{
												"box" : 												{
													"maxclass" : "newobj",
													"text" : "route 0 1 2 3 4 5 6 7 8 9 10 11 12",
													"patching_rect" : [ 15.0, 75.0, 213.5, 20.0 ],
													"id" : "obj-96",
													"numinlets" : 1,
													"fontname" : "Arial",
													"numoutlets" : 14,
													"outlettype" : [ "", "", "", "", "", "", "", "", "", "", "", "", "", "" ],
													"fontsize" : 12.0
												}

											}
, 											{
												"box" : 												{
													"maxclass" : "inlet",
													"patching_rect" : [ 15.0, 15.0, 25.0, 25.0 ],
													"id" : "obj-218",
													"numinlets" : 0,
													"numoutlets" : 1,
													"outlettype" : [ "" ],
													"comment" : ""
												}

											}
 ],
										"lines" : [ 											{
												"patchline" : 												{
													"source" : [ "obj-218", 0 ],
													"destination" : [ "obj-96", 0 ],
													"hidden" : 0,
													"midpoints" : [  ]
												}

											}
, 											{
												"patchline" : 												{
													"source" : [ "obj-170", 0 ],
													"destination" : [ "obj-167", 0 ],
													"hidden" : 0,
													"midpoints" : [  ]
												}

											}
, 											{
												"patchline" : 												{
													"source" : [ "obj-165", 0 ],
													"destination" : [ "obj-162", 0 ],
													"hidden" : 0,
													"midpoints" : [  ]
												}

											}
, 											{
												"patchline" : 												{
													"source" : [ "obj-175", 0 ],
													"destination" : [ "obj-172", 0 ],
													"hidden" : 0,
													"midpoints" : [  ]
												}

											}
, 											{
												"patchline" : 												{
													"source" : [ "obj-160", 0 ],
													"destination" : [ "obj-157", 0 ],
													"hidden" : 0,
													"midpoints" : [  ]
												}

											}
, 											{
												"patchline" : 												{
													"source" : [ "obj-205", 0 ],
													"destination" : [ "obj-202", 0 ],
													"hidden" : 0,
													"midpoints" : [  ]
												}

											}
, 											{
												"patchline" : 												{
													"source" : [ "obj-180", 0 ],
													"destination" : [ "obj-177", 0 ],
													"hidden" : 0,
													"midpoints" : [  ]
												}

											}
, 											{
												"patchline" : 												{
													"source" : [ "obj-155", 0 ],
													"destination" : [ "obj-152", 0 ],
													"hidden" : 0,
													"midpoints" : [  ]
												}

											}
, 											{
												"patchline" : 												{
													"source" : [ "obj-210", 0 ],
													"destination" : [ "obj-207", 0 ],
													"hidden" : 0,
													"midpoints" : [  ]
												}

											}
, 											{
												"patchline" : 												{
													"source" : [ "obj-185", 0 ],
													"destination" : [ "obj-182", 0 ],
													"hidden" : 0,
													"midpoints" : [  ]
												}

											}
, 											{
												"patchline" : 												{
													"source" : [ "obj-150", 0 ],
													"destination" : [ "obj-147", 0 ],
													"hidden" : 0,
													"midpoints" : [  ]
												}

											}
, 											{
												"patchline" : 												{
													"source" : [ "obj-215", 0 ],
													"destination" : [ "obj-212", 0 ],
													"hidden" : 0,
													"midpoints" : [  ]
												}

											}
, 											{
												"patchline" : 												{
													"source" : [ "obj-190", 0 ],
													"destination" : [ "obj-187", 0 ],
													"hidden" : 0,
													"midpoints" : [  ]
												}

											}
, 											{
												"patchline" : 												{
													"source" : [ "obj-101", 0 ],
													"destination" : [ "obj-146", 0 ],
													"hidden" : 0,
													"midpoints" : [  ]
												}

											}
, 											{
												"patchline" : 												{
													"source" : [ "obj-96", 12 ],
													"destination" : [ "obj-206", 0 ],
													"hidden" : 0,
													"midpoints" : [  ]
												}

											}
, 											{
												"patchline" : 												{
													"source" : [ "obj-96", 11 ],
													"destination" : [ "obj-211", 0 ],
													"hidden" : 0,
													"midpoints" : [  ]
												}

											}
, 											{
												"patchline" : 												{
													"source" : [ "obj-96", 10 ],
													"destination" : [ "obj-216", 0 ],
													"hidden" : 0,
													"midpoints" : [  ]
												}

											}
, 											{
												"patchline" : 												{
													"source" : [ "obj-96", 9 ],
													"destination" : [ "obj-171", 0 ],
													"hidden" : 0,
													"midpoints" : [  ]
												}

											}
, 											{
												"patchline" : 												{
													"source" : [ "obj-176", 0 ],
													"destination" : [ "obj-174", 0 ],
													"hidden" : 0,
													"midpoints" : [  ]
												}

											}
, 											{
												"patchline" : 												{
													"source" : [ "obj-174", 0 ],
													"destination" : [ "obj-175", 0 ],
													"hidden" : 0,
													"midpoints" : [  ]
												}

											}
, 											{
												"patchline" : 												{
													"source" : [ "obj-96", 8 ],
													"destination" : [ "obj-176", 0 ],
													"hidden" : 0,
													"midpoints" : [  ]
												}

											}
, 											{
												"patchline" : 												{
													"source" : [ "obj-96", 7 ],
													"destination" : [ "obj-181", 0 ],
													"hidden" : 0,
													"midpoints" : [  ]
												}

											}
, 											{
												"patchline" : 												{
													"source" : [ "obj-96", 6 ],
													"destination" : [ "obj-186", 0 ],
													"hidden" : 0,
													"midpoints" : [  ]
												}

											}
, 											{
												"patchline" : 												{
													"source" : [ "obj-96", 5 ],
													"destination" : [ "obj-191", 0 ],
													"hidden" : 0,
													"midpoints" : [  ]
												}

											}
, 											{
												"patchline" : 												{
													"source" : [ "obj-96", 4 ],
													"destination" : [ "obj-166", 0 ],
													"hidden" : 0,
													"midpoints" : [  ]
												}

											}
, 											{
												"patchline" : 												{
													"source" : [ "obj-96", 3 ],
													"destination" : [ "obj-161", 0 ],
													"hidden" : 0,
													"midpoints" : [  ]
												}

											}
, 											{
												"patchline" : 												{
													"source" : [ "obj-96", 2 ],
													"destination" : [ "obj-156", 0 ],
													"hidden" : 0,
													"midpoints" : [  ]
												}

											}
, 											{
												"patchline" : 												{
													"source" : [ "obj-96", 1 ],
													"destination" : [ "obj-151", 0 ],
													"hidden" : 0,
													"midpoints" : [  ]
												}

											}
, 											{
												"patchline" : 												{
													"source" : [ "obj-203", 0 ],
													"destination" : [ "obj-206", 0 ],
													"hidden" : 0,
													"midpoints" : [ 219.5, 430.0, 204.5, 430.0 ]
												}

											}
, 											{
												"patchline" : 												{
													"source" : [ "obj-204", 0 ],
													"destination" : [ "obj-205", 0 ],
													"hidden" : 0,
													"midpoints" : [  ]
												}

											}
, 											{
												"patchline" : 												{
													"source" : [ "obj-206", 0 ],
													"destination" : [ "obj-204", 0 ],
													"hidden" : 0,
													"midpoints" : [  ]
												}

											}
, 											{
												"patchline" : 												{
													"source" : [ "obj-211", 0 ],
													"destination" : [ "obj-209", 0 ],
													"hidden" : 0,
													"midpoints" : [  ]
												}

											}
, 											{
												"patchline" : 												{
													"source" : [ "obj-209", 0 ],
													"destination" : [ "obj-210", 0 ],
													"hidden" : 0,
													"midpoints" : [  ]
												}

											}
, 											{
												"patchline" : 												{
													"source" : [ "obj-208", 0 ],
													"destination" : [ "obj-211", 0 ],
													"hidden" : 0,
													"midpoints" : [ 204.5, 280.0, 189.5, 280.0 ]
												}

											}
, 											{
												"patchline" : 												{
													"source" : [ "obj-213", 0 ],
													"destination" : [ "obj-216", 0 ],
													"hidden" : 0,
													"midpoints" : [ 189.5, 130.0, 174.5, 130.0 ]
												}

											}
, 											{
												"patchline" : 												{
													"source" : [ "obj-214", 0 ],
													"destination" : [ "obj-215", 0 ],
													"hidden" : 0,
													"midpoints" : [  ]
												}

											}
, 											{
												"patchline" : 												{
													"source" : [ "obj-216", 0 ],
													"destination" : [ "obj-214", 0 ],
													"hidden" : 0,
													"midpoints" : [  ]
												}

											}
, 											{
												"patchline" : 												{
													"source" : [ "obj-191", 0 ],
													"destination" : [ "obj-189", 0 ],
													"hidden" : 0,
													"midpoints" : [  ]
												}

											}
, 											{
												"patchline" : 												{
													"source" : [ "obj-189", 0 ],
													"destination" : [ "obj-190", 0 ],
													"hidden" : 0,
													"midpoints" : [  ]
												}

											}
, 											{
												"patchline" : 												{
													"source" : [ "obj-188", 0 ],
													"destination" : [ "obj-191", 0 ],
													"hidden" : 0,
													"midpoints" : [ 114.5, 130.0, 99.5, 130.0 ]
												}

											}
, 											{
												"patchline" : 												{
													"source" : [ "obj-183", 0 ],
													"destination" : [ "obj-186", 0 ],
													"hidden" : 0,
													"midpoints" : [ 129.5, 280.0, 114.5, 280.0 ]
												}

											}
, 											{
												"patchline" : 												{
													"source" : [ "obj-184", 0 ],
													"destination" : [ "obj-185", 0 ],
													"hidden" : 0,
													"midpoints" : [  ]
												}

											}
, 											{
												"patchline" : 												{
													"source" : [ "obj-186", 0 ],
													"destination" : [ "obj-184", 0 ],
													"hidden" : 0,
													"midpoints" : [  ]
												}

											}
, 											{
												"patchline" : 												{
													"source" : [ "obj-181", 0 ],
													"destination" : [ "obj-179", 0 ],
													"hidden" : 0,
													"midpoints" : [  ]
												}

											}
, 											{
												"patchline" : 												{
													"source" : [ "obj-179", 0 ],
													"destination" : [ "obj-180", 0 ],
													"hidden" : 0,
													"midpoints" : [  ]
												}

											}
, 											{
												"patchline" : 												{
													"source" : [ "obj-178", 0 ],
													"destination" : [ "obj-181", 0 ],
													"hidden" : 0,
													"midpoints" : [ 144.5, 430.0, 129.5, 430.0 ]
												}

											}
, 											{
												"patchline" : 												{
													"source" : [ "obj-173", 0 ],
													"destination" : [ "obj-176", 0 ],
													"hidden" : 0,
													"midpoints" : [ 159.5, 580.0, 144.5, 580.0 ]
												}

											}
, 											{
												"patchline" : 												{
													"source" : [ "obj-171", 0 ],
													"destination" : [ "obj-169", 0 ],
													"hidden" : 0,
													"midpoints" : [  ]
												}

											}
, 											{
												"patchline" : 												{
													"source" : [ "obj-169", 0 ],
													"destination" : [ "obj-170", 0 ],
													"hidden" : 0,
													"midpoints" : [  ]
												}

											}
, 											{
												"patchline" : 												{
													"source" : [ "obj-168", 0 ],
													"destination" : [ "obj-171", 0 ],
													"hidden" : 0,
													"midpoints" : [ 174.5, 730.0, 159.5, 730.0 ]
												}

											}
, 											{
												"patchline" : 												{
													"source" : [ "obj-163", 0 ],
													"destination" : [ "obj-166", 0 ],
													"hidden" : 0,
													"midpoints" : [ 99.5, 730.0, 84.5, 730.0 ]
												}

											}
, 											{
												"patchline" : 												{
													"source" : [ "obj-164", 0 ],
													"destination" : [ "obj-165", 0 ],
													"hidden" : 0,
													"midpoints" : [  ]
												}

											}
, 											{
												"patchline" : 												{
													"source" : [ "obj-166", 0 ],
													"destination" : [ "obj-164", 0 ],
													"hidden" : 0,
													"midpoints" : [  ]
												}

											}
, 											{
												"patchline" : 												{
													"source" : [ "obj-161", 0 ],
													"destination" : [ "obj-159", 0 ],
													"hidden" : 0,
													"midpoints" : [  ]
												}

											}
, 											{
												"patchline" : 												{
													"source" : [ "obj-159", 0 ],
													"destination" : [ "obj-160", 0 ],
													"hidden" : 0,
													"midpoints" : [  ]
												}

											}
, 											{
												"patchline" : 												{
													"source" : [ "obj-158", 0 ],
													"destination" : [ "obj-161", 0 ],
													"hidden" : 0,
													"midpoints" : [ 84.5, 580.0, 69.5, 580.0 ]
												}

											}
, 											{
												"patchline" : 												{
													"source" : [ "obj-153", 0 ],
													"destination" : [ "obj-156", 0 ],
													"hidden" : 0,
													"midpoints" : [ 69.5, 430.0, 54.5, 430.0 ]
												}

											}
, 											{
												"patchline" : 												{
													"source" : [ "obj-154", 0 ],
													"destination" : [ "obj-155", 0 ],
													"hidden" : 0,
													"midpoints" : [  ]
												}

											}
, 											{
												"patchline" : 												{
													"source" : [ "obj-156", 0 ],
													"destination" : [ "obj-154", 0 ],
													"hidden" : 0,
													"midpoints" : [  ]
												}

											}
, 											{
												"patchline" : 												{
													"source" : [ "obj-151", 0 ],
													"destination" : [ "obj-149", 0 ],
													"hidden" : 0,
													"midpoints" : [  ]
												}

											}
, 											{
												"patchline" : 												{
													"source" : [ "obj-149", 0 ],
													"destination" : [ "obj-150", 0 ],
													"hidden" : 0,
													"midpoints" : [  ]
												}

											}
, 											{
												"patchline" : 												{
													"source" : [ "obj-148", 0 ],
													"destination" : [ "obj-151", 0 ],
													"hidden" : 0,
													"midpoints" : [ 54.5, 280.0, 39.5, 280.0 ]
												}

											}
, 											{
												"patchline" : 												{
													"source" : [ "obj-145", 0 ],
													"destination" : [ "obj-98", 0 ],
													"hidden" : 0,
													"midpoints" : [ 39.5, 130.0, 24.5, 130.0 ]
												}

											}
, 											{
												"patchline" : 												{
													"source" : [ "obj-102", 0 ],
													"destination" : [ "obj-101", 0 ],
													"hidden" : 0,
													"midpoints" : [  ]
												}

											}
, 											{
												"patchline" : 												{
													"source" : [ "obj-98", 0 ],
													"destination" : [ "obj-102", 0 ],
													"hidden" : 0,
													"midpoints" : [  ]
												}

											}
, 											{
												"patchline" : 												{
													"source" : [ "obj-96", 0 ],
													"destination" : [ "obj-98", 0 ],
													"hidden" : 0,
													"midpoints" : [  ]
												}

											}
, 											{
												"patchline" : 												{
													"source" : [ "obj-1", 0 ],
													"destination" : [ "obj-2", 0 ],
													"hidden" : 0,
													"midpoints" : [  ]
												}

											}
 ]
									}
,
									"saved_object_attributes" : 									{
										"fontname" : "Arial",
										"default_fontface" : 0,
										"globalpatchername" : "",
										"default_fontname" : "Arial",
										"fontface" : 0,
										"fontsize" : 12.0,
										"default_fontsize" : 12.0
									}

								}

							}
, 							{
								"box" : 								{
									"maxclass" : "newobj",
									"text" : "r listGate",
									"patching_rect" : [ 330.0, 420.0, 59.0, 20.0 ],
									"id" : "obj-217",
									"numinlets" : 0,
									"fontname" : "Arial",
									"numoutlets" : 1,
									"outlettype" : [ "" ],
									"fontsize" : 12.0
								}

							}
, 							{
								"box" : 								{
									"maxclass" : "newobj",
									"text" : "pack i i i",
									"patching_rect" : [ 330.0, 330.0, 109.0, 20.0 ],
									"id" : "obj-90",
									"numinlets" : 3,
									"fontname" : "Arial",
									"numoutlets" : 1,
									"outlettype" : [ "" ],
									"fontsize" : 12.0
								}

							}
, 							{
								"box" : 								{
									"maxclass" : "newobj",
									"text" : ">> 3",
									"patching_rect" : [ 420.0, 270.0, 35.0, 20.0 ],
									"id" : "obj-77",
									"numinlets" : 2,
									"fontname" : "Arial",
									"numoutlets" : 1,
									"outlettype" : [ "int" ],
									"fontsize" : 12.0
								}

							}
, 							{
								"box" : 								{
									"maxclass" : "newobj",
									"text" : "t i i",
									"patching_rect" : [ 330.0, 240.0, 63.5, 20.0 ],
									"id" : "obj-78",
									"numinlets" : 1,
									"fontname" : "Arial",
									"numoutlets" : 2,
									"outlettype" : [ "int", "int" ],
									"fontsize" : 12.0
								}

							}
, 							{
								"box" : 								{
									"maxclass" : "newobj",
									"text" : "/ 12",
									"patching_rect" : [ 375.0, 270.0, 32.5, 20.0 ],
									"id" : "obj-79",
									"numinlets" : 2,
									"fontname" : "Arial",
									"numoutlets" : 1,
									"outlettype" : [ "int" ],
									"fontsize" : 12.0
								}

							}
, 							{
								"box" : 								{
									"maxclass" : "newobj",
									"text" : "% 12",
									"patching_rect" : [ 330.0, 270.0, 38.0, 20.0 ],
									"id" : "obj-80",
									"numinlets" : 2,
									"fontname" : "Arial",
									"numoutlets" : 1,
									"outlettype" : [ "int" ],
									"fontsize" : 12.0
								}

							}
, 							{
								"box" : 								{
									"maxclass" : "newobj",
									"text" : "unpack i i",
									"patching_rect" : [ 330.0, 210.0, 109.0, 20.0 ],
									"id" : "obj-75",
									"numinlets" : 1,
									"fontname" : "Arial",
									"numoutlets" : 2,
									"outlettype" : [ "int", "int" ],
									"fontsize" : 12.0
								}

							}
, 							{
								"box" : 								{
									"maxclass" : "newobj",
									"text" : "t 0 b b l 0 b",
									"patching_rect" : [ 285.0, 150.0, 93.5, 20.0 ],
									"id" : "obj-74",
									"numinlets" : 1,
									"fontname" : "Arial",
									"numoutlets" : 6,
									"outlettype" : [ "int", "bang", "bang", "", "int", "bang" ],
									"fontsize" : 12.0
								}

							}
, 							{
								"box" : 								{
									"maxclass" : "newobj",
									"text" : "b 1",
									"patching_rect" : [ 345.0, 540.0, 27.0, 20.0 ],
									"id" : "obj-64",
									"numinlets" : 1,
									"fontname" : "Arial",
									"numoutlets" : 1,
									"outlettype" : [ "bang" ],
									"fontsize" : 12.0
								}

							}
, 							{
								"box" : 								{
									"maxclass" : "newobj",
									"text" : "counter",
									"patching_rect" : [ 345.0, 570.0, 73.0, 20.0 ],
									"id" : "obj-61",
									"numinlets" : 5,
									"fontname" : "Arial",
									"numoutlets" : 4,
									"outlettype" : [ "int", "", "", "int" ],
									"fontsize" : 12.0
								}

							}
, 							{
								"box" : 								{
									"maxclass" : "message",
									"text" : "set 999",
									"patching_rect" : [ 465.0, 480.0, 50.0, 18.0 ],
									"id" : "obj-59",
									"numinlets" : 2,
									"fontname" : "Arial",
									"numoutlets" : 1,
									"outlettype" : [ "" ],
									"fontsize" : 12.0
								}

							}
, 							{
								"box" : 								{
									"maxclass" : "message",
									"text" : "$1",
									"patching_rect" : [ 345.0, 480.0, 32.5, 18.0 ],
									"id" : "obj-57",
									"numinlets" : 2,
									"fontname" : "Arial",
									"numoutlets" : 1,
									"outlettype" : [ "" ],
									"fontsize" : 12.0
								}

							}
, 							{
								"box" : 								{
									"maxclass" : "newobj",
									"text" : "t l l",
									"patching_rect" : [ 330.0, 450.0, 33.5, 20.0 ],
									"id" : "obj-53",
									"numinlets" : 1,
									"fontname" : "Arial",
									"numoutlets" : 2,
									"outlettype" : [ "", "" ],
									"fontsize" : 12.0
								}

							}
, 							{
								"box" : 								{
									"maxclass" : "newobj",
									"text" : "change",
									"patching_rect" : [ 345.0, 510.0, 50.0, 20.0 ],
									"id" : "obj-52",
									"numinlets" : 1,
									"fontname" : "Arial",
									"numoutlets" : 3,
									"outlettype" : [ "", "int", "int" ],
									"fontsize" : 12.0
								}

							}
, 							{
								"box" : 								{
									"maxclass" : "newobj",
									"text" : "zl iter 2",
									"patching_rect" : [ 330.0, 180.0, 49.0, 20.0 ],
									"id" : "obj-38",
									"numinlets" : 2,
									"fontname" : "Arial",
									"numoutlets" : 2,
									"outlettype" : [ "", "" ],
									"fontsize" : 12.0
								}

							}
, 							{
								"box" : 								{
									"maxclass" : "newobj",
									"text" : "zl lace",
									"patching_rect" : [ 285.0, 120.0, 154.0, 20.0 ],
									"id" : "obj-25",
									"numinlets" : 2,
									"fontname" : "Arial",
									"numoutlets" : 2,
									"outlettype" : [ "", "" ],
									"fontsize" : 12.0
								}

							}
, 							{
								"box" : 								{
									"maxclass" : "newobj",
									"text" : "stripnote",
									"patching_rect" : [ 285.0, 60.0, 154.0, 20.0 ],
									"id" : "obj-23",
									"numinlets" : 2,
									"fontname" : "Arial",
									"numoutlets" : 2,
									"outlettype" : [ "int", "int" ],
									"fontsize" : 12.0
								}

							}
, 							{
								"box" : 								{
									"maxclass" : "newobj",
									"text" : "quickthresh 150 20 50",
									"patching_rect" : [ 420.0, 90.0, 129.0, 20.0 ],
									"id" : "obj-17",
									"numinlets" : 4,
									"fontname" : "Arial",
									"numoutlets" : 1,
									"outlettype" : [ "" ],
									"fontsize" : 12.0
								}

							}
, 							{
								"box" : 								{
									"maxclass" : "newobj",
									"text" : "quickthresh 150 30 50",
									"patching_rect" : [ 285.0, 90.0, 129.0, 20.0 ],
									"id" : "obj-1",
									"numinlets" : 4,
									"fontname" : "Arial",
									"numoutlets" : 1,
									"outlettype" : [ "" ],
									"fontsize" : 12.0
								}

							}
, 							{
								"box" : 								{
									"maxclass" : "inlet",
									"patching_rect" : [ 285.0, 15.0, 25.0, 25.0 ],
									"id" : "obj-94",
									"numinlets" : 0,
									"numoutlets" : 1,
									"outlettype" : [ "int" ],
									"comment" : ""
								}

							}
, 							{
								"box" : 								{
									"maxclass" : "inlet",
									"patching_rect" : [ 420.0, 15.0, 25.0, 25.0 ],
									"id" : "obj-95",
									"numinlets" : 0,
									"numoutlets" : 1,
									"outlettype" : [ "int" ],
									"comment" : ""
								}

							}
, 							{
								"box" : 								{
									"maxclass" : "outlet",
									"patching_rect" : [ 15.0, 825.0, 25.0, 25.0 ],
									"id" : "obj-96",
									"numinlets" : 1,
									"numoutlets" : 0,
									"comment" : ""
								}

							}
 ],
						"lines" : [ 							{
								"patchline" : 								{
									"source" : [ "obj-1", 0 ],
									"destination" : [ "obj-25", 0 ],
									"hidden" : 0,
									"midpoints" : [  ]
								}

							}
, 							{
								"patchline" : 								{
									"source" : [ "obj-23", 0 ],
									"destination" : [ "obj-1", 0 ],
									"hidden" : 0,
									"midpoints" : [  ]
								}

							}
, 							{
								"patchline" : 								{
									"source" : [ "obj-8", 0 ],
									"destination" : [ "obj-90", 0 ],
									"hidden" : 0,
									"midpoints" : [  ]
								}

							}
, 							{
								"patchline" : 								{
									"source" : [ "obj-80", 0 ],
									"destination" : [ "obj-8", 0 ],
									"hidden" : 0,
									"midpoints" : [  ]
								}

							}
, 							{
								"patchline" : 								{
									"source" : [ "obj-79", 0 ],
									"destination" : [ "obj-90", 1 ],
									"hidden" : 0,
									"midpoints" : [  ]
								}

							}
, 							{
								"patchline" : 								{
									"source" : [ "obj-78", 1 ],
									"destination" : [ "obj-79", 0 ],
									"hidden" : 0,
									"midpoints" : [  ]
								}

							}
, 							{
								"patchline" : 								{
									"source" : [ "obj-78", 0 ],
									"destination" : [ "obj-80", 0 ],
									"hidden" : 0,
									"midpoints" : [  ]
								}

							}
, 							{
								"patchline" : 								{
									"source" : [ "obj-7", 0 ],
									"destination" : [ "obj-219", 0 ],
									"hidden" : 0,
									"midpoints" : [  ]
								}

							}
, 							{
								"patchline" : 								{
									"source" : [ "obj-90", 0 ],
									"destination" : [ "obj-7", 0 ],
									"hidden" : 0,
									"midpoints" : [  ]
								}

							}
, 							{
								"patchline" : 								{
									"source" : [ "obj-59", 0 ],
									"destination" : [ "obj-52", 0 ],
									"hidden" : 0,
									"midpoints" : [ 474.5, 505.0, 354.5, 505.0 ]
								}

							}
, 							{
								"patchline" : 								{
									"source" : [ "obj-57", 0 ],
									"destination" : [ "obj-52", 0 ],
									"hidden" : 0,
									"midpoints" : [  ]
								}

							}
, 							{
								"patchline" : 								{
									"source" : [ "obj-52", 0 ],
									"destination" : [ "obj-64", 0 ],
									"hidden" : 0,
									"midpoints" : [  ]
								}

							}
, 							{
								"patchline" : 								{
									"source" : [ "obj-53", 1 ],
									"destination" : [ "obj-57", 0 ],
									"hidden" : 0,
									"midpoints" : [  ]
								}

							}
, 							{
								"patchline" : 								{
									"source" : [ "obj-75", 0 ],
									"destination" : [ "obj-78", 0 ],
									"hidden" : 0,
									"midpoints" : [  ]
								}

							}
, 							{
								"patchline" : 								{
									"source" : [ "obj-75", 1 ],
									"destination" : [ "obj-77", 0 ],
									"hidden" : 0,
									"midpoints" : [  ]
								}

							}
, 							{
								"patchline" : 								{
									"source" : [ "obj-38", 0 ],
									"destination" : [ "obj-75", 0 ],
									"hidden" : 0,
									"midpoints" : [  ]
								}

							}
, 							{
								"patchline" : 								{
									"source" : [ "obj-77", 0 ],
									"destination" : [ "obj-90", 2 ],
									"hidden" : 0,
									"midpoints" : [  ]
								}

							}
, 							{
								"patchline" : 								{
									"source" : [ "obj-64", 0 ],
									"destination" : [ "obj-61", 0 ],
									"hidden" : 0,
									"midpoints" : [  ]
								}

							}
, 							{
								"patchline" : 								{
									"source" : [ "obj-217", 0 ],
									"destination" : [ "obj-53", 0 ],
									"hidden" : 0,
									"midpoints" : [  ]
								}

							}
, 							{
								"patchline" : 								{
									"source" : [ "obj-61", 0 ],
									"destination" : [ "obj-28", 0 ],
									"hidden" : 0,
									"midpoints" : [  ]
								}

							}
, 							{
								"patchline" : 								{
									"source" : [ "obj-28", 1 ],
									"destination" : [ "obj-30", 0 ],
									"hidden" : 0,
									"midpoints" : [  ]
								}

							}
, 							{
								"patchline" : 								{
									"source" : [ "obj-25", 0 ],
									"destination" : [ "obj-74", 0 ],
									"hidden" : 0,
									"midpoints" : [  ]
								}

							}
, 							{
								"patchline" : 								{
									"source" : [ "obj-74", 5 ],
									"destination" : [ "obj-59", 0 ],
									"hidden" : 0,
									"midpoints" : [ 369.0, 173.0, 474.5, 173.0 ]
								}

							}
, 							{
								"patchline" : 								{
									"source" : [ "obj-74", 4 ],
									"destination" : [ "obj-61", 2 ],
									"hidden" : 0,
									"midpoints" : [ 354.100006, 176.0, 460.0, 176.0, 460.0, 565.0, 381.5, 565.0 ]
								}

							}
, 							{
								"patchline" : 								{
									"source" : [ "obj-74", 3 ],
									"destination" : [ "obj-38", 0 ],
									"hidden" : 0,
									"midpoints" : [  ]
								}

							}
, 							{
								"patchline" : 								{
									"source" : [ "obj-74", 2 ],
									"destination" : [ "obj-219", 1 ],
									"hidden" : 0,
									"midpoints" : [ 324.299988, 384.0, 441.5, 384.0 ]
								}

							}
, 							{
								"patchline" : 								{
									"source" : [ "obj-74", 1 ],
									"destination" : [ "obj-49", 0 ],
									"hidden" : 0,
									"midpoints" : [  ]
								}

							}
, 							{
								"patchline" : 								{
									"source" : [ "obj-30", 0 ],
									"destination" : [ "obj-37", 0 ],
									"hidden" : 0,
									"midpoints" : [  ]
								}

							}
, 							{
								"patchline" : 								{
									"source" : [ "obj-37", 1 ],
									"destination" : [ "obj-40", 0 ],
									"hidden" : 0,
									"midpoints" : [ 430.5, 683.0, 24.5, 683.0 ]
								}

							}
, 							{
								"patchline" : 								{
									"source" : [ "obj-37", 0 ],
									"destination" : [ "obj-40", 1 ],
									"hidden" : 0,
									"midpoints" : [ 399.5, 687.0, 339.0, 687.0 ]
								}

							}
, 							{
								"patchline" : 								{
									"source" : [ "obj-37", 2 ],
									"destination" : [ "obj-40", 1 ],
									"hidden" : 0,
									"midpoints" : [ 461.5, 687.0, 339.0, 687.0 ]
								}

							}
, 							{
								"patchline" : 								{
									"source" : [ "obj-53", 0 ],
									"destination" : [ "obj-40", 1 ],
									"hidden" : 0,
									"midpoints" : [  ]
								}

							}
, 							{
								"patchline" : 								{
									"source" : [ "obj-49", 0 ],
									"destination" : [ "obj-40", 1 ],
									"hidden" : 0,
									"midpoints" : [ 309.5, 687.0, 339.0, 687.0 ]
								}

							}
, 							{
								"patchline" : 								{
									"source" : [ "obj-74", 0 ],
									"destination" : [ "obj-40", 0 ],
									"hidden" : 0,
									"midpoints" : [ 294.5, 683.0, 24.5, 683.0 ]
								}

							}
, 							{
								"patchline" : 								{
									"source" : [ "obj-28", 0 ],
									"destination" : [ "obj-67", 0 ],
									"hidden" : 0,
									"midpoints" : [  ]
								}

							}
, 							{
								"patchline" : 								{
									"source" : [ "obj-67", 0 ],
									"destination" : [ "obj-40", 0 ],
									"hidden" : 0,
									"midpoints" : [ 354.5, 683.0, 24.5, 683.0 ]
								}

							}
, 							{
								"patchline" : 								{
									"source" : [ "obj-40", 0 ],
									"destination" : [ "obj-41", 0 ],
									"hidden" : 0,
									"midpoints" : [  ]
								}

							}
, 							{
								"patchline" : 								{
									"source" : [ "obj-41", 0 ],
									"destination" : [ "obj-47", 0 ],
									"hidden" : 0,
									"midpoints" : [  ]
								}

							}
, 							{
								"patchline" : 								{
									"source" : [ "obj-40", 1 ],
									"destination" : [ "obj-51", 0 ],
									"hidden" : 0,
									"midpoints" : [  ]
								}

							}
, 							{
								"patchline" : 								{
									"source" : [ "obj-51", 0 ],
									"destination" : [ "obj-50", 0 ],
									"hidden" : 0,
									"midpoints" : [  ]
								}

							}
, 							{
								"patchline" : 								{
									"source" : [ "obj-40", 2 ],
									"destination" : [ "obj-56", 0 ],
									"hidden" : 0,
									"midpoints" : [  ]
								}

							}
, 							{
								"patchline" : 								{
									"source" : [ "obj-56", 0 ],
									"destination" : [ "obj-55", 0 ],
									"hidden" : 0,
									"midpoints" : [  ]
								}

							}
, 							{
								"patchline" : 								{
									"source" : [ "obj-40", 3 ],
									"destination" : [ "obj-62", 0 ],
									"hidden" : 0,
									"midpoints" : [  ]
								}

							}
, 							{
								"patchline" : 								{
									"source" : [ "obj-62", 0 ],
									"destination" : [ "obj-60", 0 ],
									"hidden" : 0,
									"midpoints" : [  ]
								}

							}
, 							{
								"patchline" : 								{
									"source" : [ "obj-94", 0 ],
									"destination" : [ "obj-23", 0 ],
									"hidden" : 0,
									"midpoints" : [  ]
								}

							}
, 							{
								"patchline" : 								{
									"source" : [ "obj-95", 0 ],
									"destination" : [ "obj-23", 1 ],
									"hidden" : 0,
									"midpoints" : [  ]
								}

							}
, 							{
								"patchline" : 								{
									"source" : [ "obj-41", 2 ],
									"destination" : [ "obj-26", 1 ],
									"hidden" : 0,
									"midpoints" : [ 104.5, 774.0, 56.5, 774.0 ]
								}

							}
, 							{
								"patchline" : 								{
									"source" : [ "obj-41", 1 ],
									"destination" : [ "obj-26", 2 ],
									"hidden" : 0,
									"midpoints" : [ 64.5, 745.0, 88.5, 745.0 ]
								}

							}
, 							{
								"patchline" : 								{
									"source" : [ "obj-47", 0 ],
									"destination" : [ "obj-26", 0 ],
									"hidden" : 0,
									"midpoints" : [  ]
								}

							}
, 							{
								"patchline" : 								{
									"source" : [ "obj-51", 1 ],
									"destination" : [ "obj-54", 2 ],
									"hidden" : 0,
									"midpoints" : [ 169.5, 745.0, 193.5, 745.0 ]
								}

							}
, 							{
								"patchline" : 								{
									"source" : [ "obj-51", 2 ],
									"destination" : [ "obj-54", 1 ],
									"hidden" : 0,
									"midpoints" : [ 209.5, 774.0, 161.5, 774.0 ]
								}

							}
, 							{
								"patchline" : 								{
									"source" : [ "obj-50", 0 ],
									"destination" : [ "obj-54", 0 ],
									"hidden" : 0,
									"midpoints" : [  ]
								}

							}
, 							{
								"patchline" : 								{
									"source" : [ "obj-56", 2 ],
									"destination" : [ "obj-58", 1 ],
									"hidden" : 0,
									"midpoints" : [ 314.5, 774.0, 266.5, 774.0 ]
								}

							}
, 							{
								"patchline" : 								{
									"source" : [ "obj-56", 1 ],
									"destination" : [ "obj-58", 2 ],
									"hidden" : 0,
									"midpoints" : [ 274.5, 745.0, 298.5, 745.0 ]
								}

							}
, 							{
								"patchline" : 								{
									"source" : [ "obj-55", 0 ],
									"destination" : [ "obj-58", 0 ],
									"hidden" : 0,
									"midpoints" : [  ]
								}

							}
, 							{
								"patchline" : 								{
									"source" : [ "obj-62", 1 ],
									"destination" : [ "obj-63", 2 ],
									"hidden" : 0,
									"midpoints" : [ 379.5, 745.0, 403.5, 745.0 ]
								}

							}
, 							{
								"patchline" : 								{
									"source" : [ "obj-62", 2 ],
									"destination" : [ "obj-63", 1 ],
									"hidden" : 0,
									"midpoints" : [ 419.5, 774.0, 371.5, 774.0 ]
								}

							}
, 							{
								"patchline" : 								{
									"source" : [ "obj-60", 0 ],
									"destination" : [ "obj-63", 0 ],
									"hidden" : 0,
									"midpoints" : [  ]
								}

							}
, 							{
								"patchline" : 								{
									"source" : [ "obj-26", 0 ],
									"destination" : [ "obj-96", 0 ],
									"hidden" : 0,
									"midpoints" : [  ]
								}

							}
, 							{
								"patchline" : 								{
									"source" : [ "obj-54", 0 ],
									"destination" : [ "obj-96", 0 ],
									"hidden" : 0,
									"midpoints" : [ 129.5, 804.0, 24.5, 804.0 ]
								}

							}
, 							{
								"patchline" : 								{
									"source" : [ "obj-58", 0 ],
									"destination" : [ "obj-96", 0 ],
									"hidden" : 0,
									"midpoints" : [ 234.5, 804.0, 24.5, 804.0 ]
								}

							}
, 							{
								"patchline" : 								{
									"source" : [ "obj-63", 0 ],
									"destination" : [ "obj-96", 0 ],
									"hidden" : 0,
									"midpoints" : [ 339.5, 804.0, 24.5, 804.0 ]
								}

							}
, 							{
								"patchline" : 								{
									"source" : [ "obj-23", 1 ],
									"destination" : [ "obj-17", 0 ],
									"hidden" : 0,
									"midpoints" : [  ]
								}

							}
, 							{
								"patchline" : 								{
									"source" : [ "obj-17", 0 ],
									"destination" : [ "obj-25", 1 ],
									"hidden" : 0,
									"midpoints" : [  ]
								}

							}
 ]
					}
,
					"saved_object_attributes" : 					{
						"fontname" : "Arial",
						"default_fontface" : 0,
						"globalpatchername" : "",
						"default_fontname" : "Arial",
						"fontface" : 0,
						"fontsize" : 12.0,
						"default_fontsize" : 12.0
					}

				}

			}
, 			{
				"box" : 				{
					"maxclass" : "kslider",
					"patching_rect" : [ 15.0, 90.0, 840.0, 53.0 ],
					"presentation" : 1,
					"id" : "obj-2",
					"numinlets" : 2,
					"numoutlets" : 2,
					"outlettype" : [ "int", "int" ],
					"presentation_rect" : [ 15.0, 15.0, 840.0, 53.0 ],
					"offset" : 0,
					"range" : 120
				}

			}
, 			{
				"box" : 				{
					"maxclass" : "newobj",
					"text" : "zl group 23",
					"patching_rect" : [ 15.0, 225.0, 70.0, 20.0 ],
					"id" : "obj-7",
					"numinlets" : 2,
					"fontname" : "Arial",
					"numoutlets" : 2,
					"outlettype" : [ "", "" ],
					"fontsize" : 12.0
				}

			}
, 			{
				"box" : 				{
					"maxclass" : "newobj",
					"text" : "spell",
					"patching_rect" : [ 15.0, 195.0, 35.0, 20.0 ],
					"id" : "obj-15",
					"numinlets" : 1,
					"fontname" : "Arial",
					"numoutlets" : 1,
					"outlettype" : [ "int" ],
					"fontsize" : 12.0
				}

			}
, 			{
				"box" : 				{
					"maxclass" : "newobj",
					"text" : "loadbang",
					"patching_rect" : [ 120.0, 195.0, 60.0, 20.0 ],
					"id" : "obj-45",
					"numinlets" : 1,
					"fontname" : "Arial",
					"numoutlets" : 1,
					"outlettype" : [ "bang" ],
					"fontsize" : 12.0
				}

			}
, 			{
				"box" : 				{
					"maxclass" : "newobj",
					"text" : "prepend port",
					"patching_rect" : [ 225.0, 405.0, 79.0, 20.0 ],
					"id" : "obj-44",
					"numinlets" : 1,
					"fontname" : "Arial",
					"numoutlets" : 1,
					"outlettype" : [ "" ],
					"fontsize" : 12.0
				}

			}
, 			{
				"box" : 				{
					"maxclass" : "newobj",
					"text" : "prepend append",
					"patching_rect" : [ 225.0, 345.0, 98.0, 20.0 ],
					"id" : "obj-43",
					"numinlets" : 1,
					"fontname" : "Arial",
					"numoutlets" : 1,
					"outlettype" : [ "" ],
					"fontsize" : 12.0
				}

			}
, 			{
				"box" : 				{
					"maxclass" : "newobj",
					"text" : "zl iter 1",
					"patching_rect" : [ 225.0, 315.0, 49.0, 20.0 ],
					"id" : "obj-42",
					"numinlets" : 2,
					"fontname" : "Arial",
					"numoutlets" : 2,
					"outlettype" : [ "", "" ],
					"fontsize" : 12.0
				}

			}
, 			{
				"box" : 				{
					"maxclass" : "message",
					"text" : "print",
					"patching_rect" : [ 120.0, 225.0, 34.0, 18.0 ],
					"id" : "obj-39",
					"numinlets" : 2,
					"fontname" : "Arial",
					"numoutlets" : 1,
					"outlettype" : [ "" ],
					"fontsize" : 12.0
				}

			}
, 			{
				"box" : 				{
					"maxclass" : "newobj",
					"text" : "route port",
					"patching_rect" : [ 225.0, 285.0, 62.0, 20.0 ],
					"id" : "obj-35",
					"numinlets" : 1,
					"fontname" : "Arial",
					"numoutlets" : 2,
					"outlettype" : [ "", "" ],
					"fontsize" : 12.0
				}

			}
, 			{
				"box" : 				{
					"maxclass" : "umenu",
					"types" : [  ],
					"patching_rect" : [ 225.0, 375.0, 167.0, 20.0 ],
					"presentation" : 1,
					"id" : "obj-34",
					"numinlets" : 1,
					"fontname" : "Arial",
					"numoutlets" : 3,
					"outlettype" : [ "int", "", "" ],
					"fontsize" : 12.0,
					"presentation_rect" : [ 15.0, 75.0, 167.0, 20.0 ],
					"frozen_box_attributes" : [ "items" ]
				}

			}
, 			{
				"box" : 				{
					"maxclass" : "newobj",
					"text" : "serial usbserial-FTE48D79 115200 8 1 0",
					"patching_rect" : [ 15.0, 255.0, 229.0, 20.0 ],
					"id" : "obj-5",
					"numinlets" : 1,
					"fontname" : "Arial",
					"numoutlets" : 2,
					"outlettype" : [ "int", "" ],
					"fontsize" : 12.0
				}

			}
, 			{
				"box" : 				{
					"maxclass" : "panel",
					"patching_rect" : [ 210.0, 180.0, 82.0, 55.0 ],
					"bgcolor" : [ 0.666667, 0.666667, 0.666667, 0.0 ],
					"presentation" : 1,
					"id" : "obj-70",
					"numinlets" : 1,
					"bordercolor" : [ 0.501961, 0.501961, 0.501961, 1.0 ],
					"border" : 2,
					"numoutlets" : 0,
					"presentation_rect" : [ 0.0, 0.0, 870.0, 111.0 ]
				}

			}
 ],
		"lines" : [ 			{
				"patchline" : 				{
					"source" : [ "obj-104", 1 ],
					"destination" : [ "obj-2", 1 ],
					"hidden" : 0,
					"midpoints" : [ 66.5, 84.0, 845.5, 84.0 ]
				}

			}
, 			{
				"patchline" : 				{
					"source" : [ "obj-104", 0 ],
					"destination" : [ "obj-2", 0 ],
					"hidden" : 0,
					"midpoints" : [  ]
				}

			}
, 			{
				"patchline" : 				{
					"source" : [ "obj-103", 0 ],
					"destination" : [ "obj-104", 0 ],
					"hidden" : 0,
					"midpoints" : [  ]
				}

			}
, 			{
				"patchline" : 				{
					"source" : [ "obj-2", 1 ],
					"destination" : [ "obj-97", 1 ],
					"hidden" : 0,
					"midpoints" : [ 845.5, 149.0, 108.5, 149.0 ]
				}

			}
, 			{
				"patchline" : 				{
					"source" : [ "obj-2", 0 ],
					"destination" : [ "obj-97", 0 ],
					"hidden" : 0,
					"midpoints" : [  ]
				}

			}
, 			{
				"patchline" : 				{
					"source" : [ "obj-97", 0 ],
					"destination" : [ "obj-15", 0 ],
					"hidden" : 0,
					"midpoints" : [  ]
				}

			}
, 			{
				"patchline" : 				{
					"source" : [ "obj-35", 0 ],
					"destination" : [ "obj-42", 0 ],
					"hidden" : 0,
					"midpoints" : [  ]
				}

			}
, 			{
				"patchline" : 				{
					"source" : [ "obj-42", 0 ],
					"destination" : [ "obj-43", 0 ],
					"hidden" : 0,
					"midpoints" : [  ]
				}

			}
, 			{
				"patchline" : 				{
					"source" : [ "obj-43", 0 ],
					"destination" : [ "obj-34", 0 ],
					"hidden" : 0,
					"midpoints" : [  ]
				}

			}
, 			{
				"patchline" : 				{
					"source" : [ "obj-34", 0 ],
					"destination" : [ "obj-44", 0 ],
					"hidden" : 0,
					"midpoints" : [  ]
				}

			}
, 			{
				"patchline" : 				{
					"source" : [ "obj-45", 0 ],
					"destination" : [ "obj-39", 0 ],
					"hidden" : 0,
					"midpoints" : [  ]
				}

			}
, 			{
				"patchline" : 				{
					"source" : [ "obj-15", 0 ],
					"destination" : [ "obj-7", 0 ],
					"hidden" : 0,
					"midpoints" : [  ]
				}

			}
, 			{
				"patchline" : 				{
					"source" : [ "obj-7", 0 ],
					"destination" : [ "obj-5", 0 ],
					"hidden" : 0,
					"midpoints" : [  ]
				}

			}
, 			{
				"patchline" : 				{
					"source" : [ "obj-39", 0 ],
					"destination" : [ "obj-5", 0 ],
					"hidden" : 0,
					"midpoints" : [ 129.5, 250.0, 24.5, 250.0 ]
				}

			}
, 			{
				"patchline" : 				{
					"source" : [ "obj-44", 0 ],
					"destination" : [ "obj-5", 0 ],
					"hidden" : 0,
					"midpoints" : [ 234.5, 430.0, 8.0, 430.0, 8.0, 250.0, 24.5, 250.0 ]
				}

			}
, 			{
				"patchline" : 				{
					"source" : [ "obj-5", 1 ],
					"destination" : [ "obj-35", 0 ],
					"hidden" : 0,
					"midpoints" : [  ]
				}

			}
, 			{
				"patchline" : 				{
					"source" : [ "obj-3", 1 ],
					"destination" : [ "obj-4", 1 ],
					"hidden" : 0,
					"midpoints" : [  ]
				}

			}
, 			{
				"patchline" : 				{
					"source" : [ "obj-4", 0 ],
					"destination" : [ "obj-6", 0 ],
					"hidden" : 0,
					"midpoints" : [  ]
				}

			}
, 			{
				"patchline" : 				{
					"source" : [ "obj-4", 1 ],
					"destination" : [ "obj-6", 1 ],
					"hidden" : 0,
					"midpoints" : [ 528.5, 310.0, 460.5, 310.0 ]
				}

			}
, 			{
				"patchline" : 				{
					"source" : [ "obj-8", 0 ],
					"destination" : [ "obj-3", 0 ],
					"hidden" : 0,
					"midpoints" : [  ]
				}

			}
, 			{
				"patchline" : 				{
					"source" : [ "obj-10", 0 ],
					"destination" : [ "obj-8", 0 ],
					"hidden" : 0,
					"midpoints" : [  ]
				}

			}
, 			{
				"patchline" : 				{
					"source" : [ "obj-103", 0 ],
					"destination" : [ "obj-8", 1 ],
					"hidden" : 0,
					"midpoints" : [ 24.5, 51.0, 459.5, 51.0 ]
				}

			}
, 			{
				"patchline" : 				{
					"source" : [ "obj-1", 0 ],
					"destination" : [ "obj-4", 0 ],
					"hidden" : 0,
					"midpoints" : [  ]
				}

			}
, 			{
				"patchline" : 				{
					"source" : [ "obj-3", 0 ],
					"destination" : [ "obj-1", 0 ],
					"hidden" : 0,
					"midpoints" : [  ]
				}

			}
 ]
	}

}
